<svg height="600" viewBox="0 0 2000 600" width="2000" xmlns="http://www.w3.org/2000/svg">
<g class="g-chart">
<g class="g-title" transform="translate(1000,25)">
<text dy=".35em" fill="#777" font-family="sans-serif" font-size="24px" text-anchor="middle" x="0" y="0">
DSNTK performance histogram, version 0.0.1
</text>
</g>
<g class="x-axis" transform="translate(60,550)">
<line shape-rendering="crispEdges" stroke="#bbbbbb" stroke-width="1" x1="0" x2="1900" y1="0" y2="0"/>
<g class="tick" transform="translate(21.28307,0)">
<line shape-rendering="crispEdges" stroke="#bbbbbb" stroke-width="1px" x1="0" x2="0" y1="0" y2="6"/>
<text dy=".35em" fill="#777" font-family="sans-serif" font-size="12px" text-anchor="middle" transform="rotate(0,0,16)" x="0" y="16">
45.25
</text>
</g>
<g class="tick" transform="translate(59.979607,0)">
<line shape-rendering="crispEdges" stroke="#bbbbbb" stroke-width="1px" x1="0" x2="0" y1="0" y2="6"/>
<text dy=".35em" fill="#777" font-family="sans-serif" font-size="12px" text-anchor="middle" transform="rotate(0,0,16)" x="0" y="16">
72.38
</text>
</g>
<g class="tick" transform="translate(98.67615,0)">
<line shape-rendering="crispEdges" stroke="#bbbbbb" stroke-width="1px" x1="0" x2="0" y1="0" y2="6"/>
<text dy=".35em" fill="#777" font-family="sans-serif" font-size="12px" text-anchor="middle" transform="rotate(0,0,16)" x="0" y="16">
79.84
</text>
</g>
<g class="tick" transform="translate(137.37268,0)">
<line shape-rendering="crispEdges" stroke="#bbbbbb" stroke-width="1px" x1="0" x2="0" y1="0" y2="6"/>
<text dy=".35em" fill="#777" font-family="sans-serif" font-size="12px" text-anchor="middle" transform="rotate(0,0,16)" x="0" y="16">
81.62
</text>
</g>
<g class="tick" transform="translate(176.06921,0)">
<line shape-rendering="crispEdges" stroke="#bbbbbb" stroke-width="1px" x1="0" x2="0" y1="0" y2="6"/>
<text dy=".35em" fill="#777" font-family="sans-serif" font-size="12px" text-anchor="middle" transform="rotate(0,0,16)" x="0" y="16">
86.44
</text>
</g>
<g class="tick" transform="translate(214.76575,0)">
<line shape-rendering="crispEdges" stroke="#bbbbbb" stroke-width="1px" x1="0" x2="0" y1="0" y2="6"/>
<text dy=".35em" fill="#777" font-family="sans-serif" font-size="12px" text-anchor="middle" transform="rotate(0,0,16)" x="0" y="16">
88.79
</text>
</g>
<g class="tick" transform="translate(253.4623,0)">
<line shape-rendering="crispEdges" stroke="#bbbbbb" stroke-width="1px" x1="0" x2="0" y1="0" y2="6"/>
<text dy=".35em" fill="#777" font-family="sans-serif" font-size="12px" text-anchor="middle" transform="rotate(0,0,16)" x="0" y="16">
91.22
</text>
</g>
<g class="tick" transform="translate(292.15884,0)">
<line shape-rendering="crispEdges" stroke="#bbbbbb" stroke-width="1px" x1="0" x2="0" y1="0" y2="6"/>
<text dy=".35em" fill="#777" font-family="sans-serif" font-size="12px" text-anchor="middle" transform="rotate(0,0,16)" x="0" y="16">
95.07
</text>
</g>
<g class="tick" transform="translate(330.85538,0)">
<line shape-rendering="crispEdges" stroke="#bbbbbb" stroke-width="1px" x1="0" x2="0" y1="0" y2="6"/>
<text dy=".35em" fill="#777" font-family="sans-serif" font-size="12px" text-anchor="middle" transform="rotate(0,0,16)" x="0" y="16">
96.25
</text>
</g>
<g class="tick" transform="translate(369.5519,0)">
<line shape-rendering="crispEdges" stroke="#bbbbbb" stroke-width="1px" x1="0" x2="0" y1="0" y2="6"/>
<text dy=".35em" fill="#777" font-family="sans-serif" font-size="12px" text-anchor="middle" transform="rotate(0,0,16)" x="0" y="16">
96.47
</text>
</g>
<g class="tick" transform="translate(408.24844,0)">
<line shape-rendering="crispEdges" stroke="#bbbbbb" stroke-width="1px" x1="0" x2="0" y1="0" y2="6"/>
<text dy=".35em" fill="#777" font-family="sans-serif" font-size="12px" text-anchor="middle" transform="rotate(0,0,16)" x="0" y="16">
96.97
</text>
</g>
<g class="tick" transform="translate(446.94498,0)">
<line shape-rendering="crispEdges" stroke="#bbbbbb" stroke-width="1px" x1="0" x2="0" y1="0" y2="6"/>
<text dy=".35em" fill="#777" font-family="sans-serif" font-size="12px" text-anchor="middle" transform="rotate(0,0,16)" x="0" y="16">
97.14
</text>
</g>
<g class="tick" transform="translate(485.64154,0)">
<line shape-rendering="crispEdges" stroke="#bbbbbb" stroke-width="1px" x1="0" x2="0" y1="0" y2="6"/>
<text dy=".35em" fill="#777" font-family="sans-serif" font-size="12px" text-anchor="middle" transform="rotate(0,0,16)" x="0" y="16">
97.36
</text>
</g>
<g class="tick" transform="translate(524.3381,0)">
<line shape-rendering="crispEdges" stroke="#bbbbbb" stroke-width="1px" x1="0" x2="0" y1="0" y2="6"/>
<text dy=".35em" fill="#777" font-family="sans-serif" font-size="12px" text-anchor="middle" transform="rotate(0,0,16)" x="0" y="16">
97.64
</text>
</g>
<g class="tick" transform="translate(563.0346,0)">
<line shape-rendering="crispEdges" stroke="#bbbbbb" stroke-width="1px" x1="0" x2="0" y1="0" y2="6"/>
<text dy=".35em" fill="#777" font-family="sans-serif" font-size="12px" text-anchor="middle" transform="rotate(0,0,16)" x="0" y="16">
97.93
</text>
</g>
<g class="tick" transform="translate(601.73114,0)">
<line shape-rendering="crispEdges" stroke="#bbbbbb" stroke-width="1px" x1="0" x2="0" y1="0" y2="6"/>
<text dy=".35em" fill="#777" font-family="sans-serif" font-size="12px" text-anchor="middle" transform="rotate(0,0,16)" x="0" y="16">
98.14
</text>
</g>
<g class="tick" transform="translate(640.4277,0)">
<line shape-rendering="crispEdges" stroke="#bbbbbb" stroke-width="1px" x1="0" x2="0" y1="0" y2="6"/>
<text dy=".35em" fill="#777" font-family="sans-serif" font-size="12px" text-anchor="middle" transform="rotate(0,0,16)" x="0" y="16">
98.22
</text>
</g>
<g class="tick" transform="translate(679.1242,0)">
<line shape-rendering="crispEdges" stroke="#bbbbbb" stroke-width="1px" x1="0" x2="0" y1="0" y2="6"/>
<text dy=".35em" fill="#777" font-family="sans-serif" font-size="12px" text-anchor="middle" transform="rotate(0,0,16)" x="0" y="16">
98.25
</text>
</g>
<g class="tick" transform="translate(717.82074,0)">
<line shape-rendering="crispEdges" stroke="#bbbbbb" stroke-width="1px" x1="0" x2="0" y1="0" y2="6"/>
<text dy=".35em" fill="#777" font-family="sans-serif" font-size="12px" text-anchor="middle" transform="rotate(0,0,16)" x="0" y="16">
98.39
</text>
</g>
<g class="tick" transform="translate(756.5173,0)">
<line shape-rendering="crispEdges" stroke="#bbbbbb" stroke-width="1px" x1="0" x2="0" y1="0" y2="6"/>
<text dy=".35em" fill="#777" font-family="sans-serif" font-size="12px" text-anchor="middle" transform="rotate(0,0,16)" x="0" y="16">
98.43
</text>
</g>
<g class="tick" transform="translate(795.2138,0)">
<line shape-rendering="crispEdges" stroke="#bbbbbb" stroke-width="1px" x1="0" x2="0" y1="0" y2="6"/>
<text dy=".35em" fill="#777" font-family="sans-serif" font-size="12px" text-anchor="middle" transform="rotate(0,0,16)" x="0" y="16">
98.47
</text>
</g>
<g class="tick" transform="translate(833.91034,0)">
<line shape-rendering="crispEdges" stroke="#bbbbbb" stroke-width="1px" x1="0" x2="0" y1="0" y2="6"/>
<text dy=".35em" fill="#777" font-family="sans-serif" font-size="12px" text-anchor="middle" transform="rotate(0,0,16)" x="0" y="16">
98.50
</text>
</g>
<g class="tick" transform="translate(872.6069,0)">
<line shape-rendering="crispEdges" stroke="#bbbbbb" stroke-width="1px" x1="0" x2="0" y1="0" y2="6"/>
<text dy=".35em" fill="#777" font-family="sans-serif" font-size="12px" text-anchor="middle" transform="rotate(0,0,16)" x="0" y="16">
98.54
</text>
</g>
<g class="tick" transform="translate(911.3034,0)">
<line shape-rendering="crispEdges" stroke="#bbbbbb" stroke-width="1px" x1="0" x2="0" y1="0" y2="6"/>
<text dy=".35em" fill="#777" font-family="sans-serif" font-size="12px" text-anchor="middle" transform="rotate(0,0,16)" x="0" y="16">
98.57
</text>
</g>
<g class="tick" transform="translate(950,0)">
<line shape-rendering="crispEdges" stroke="#bbbbbb" stroke-width="1px" x1="0" x2="0" y1="0" y2="6"/>
<text dy=".35em" fill="#777" font-family="sans-serif" font-size="12px" text-anchor="middle" transform="rotate(0,0,16)" x="0" y="16">
98.61
</text>
</g>
<g class="tick" transform="translate(988.69653,0)">
<line shape-rendering="crispEdges" stroke="#bbbbbb" stroke-width="1px" x1="0" x2="0" y1="0" y2="6"/>
<text dy=".35em" fill="#777" font-family="sans-serif" font-size="12px" text-anchor="middle" transform="rotate(0,0,16)" x="0" y="16">
98.64
</text>
</g>
<g class="tick" transform="translate(1027.3931,0)">
<line shape-rendering="crispEdges" stroke="#bbbbbb" stroke-width="1px" x1="0" x2="0" y1="0" y2="6"/>
<text dy=".35em" fill="#777" font-family="sans-serif" font-size="12px" text-anchor="middle" transform="rotate(0,0,16)" x="0" y="16">
98.75
</text>
</g>
<g class="tick" transform="translate(1066.0896,0)">
<line shape-rendering="crispEdges" stroke="#bbbbbb" stroke-width="1px" x1="0" x2="0" y1="0" y2="6"/>
<text dy=".35em" fill="#777" font-family="sans-serif" font-size="12px" text-anchor="middle" transform="rotate(0,0,16)" x="0" y="16">
98.79
</text>
</g>
<g class="tick" transform="translate(1104.7861,0)">
<line shape-rendering="crispEdges" stroke="#bbbbbb" stroke-width="1px" x1="0" x2="0" y1="0" y2="6"/>
<text dy=".35em" fill="#777" font-family="sans-serif" font-size="12px" text-anchor="middle" transform="rotate(0,0,16)" x="0" y="16">
98.82
</text>
</g>
<g class="tick" transform="translate(1143.4827,0)">
<line shape-rendering="crispEdges" stroke="#bbbbbb" stroke-width="1px" x1="0" x2="0" y1="0" y2="6"/>
<text dy=".35em" fill="#777" font-family="sans-serif" font-size="12px" text-anchor="middle" transform="rotate(0,0,16)" x="0" y="16">
98.89
</text>
</g>
<g class="tick" transform="translate(1182.1792,0)">
<line shape-rendering="crispEdges" stroke="#bbbbbb" stroke-width="1px" x1="0" x2="0" y1="0" y2="6"/>
<text dy=".35em" fill="#777" font-family="sans-serif" font-size="12px" text-anchor="middle" transform="rotate(0,0,16)" x="0" y="16">
98.93
</text>
</g>
<g class="tick" transform="translate(1220.8757,0)">
<line shape-rendering="crispEdges" stroke="#bbbbbb" stroke-width="1px" x1="0" x2="0" y1="0" y2="6"/>
<text dy=".35em" fill="#777" font-family="sans-serif" font-size="12px" text-anchor="middle" transform="rotate(0,0,16)" x="0" y="16">
99.00
</text>
</g>
<g class="tick" transform="translate(1259.5723,0)">
<line shape-rendering="crispEdges" stroke="#bbbbbb" stroke-width="1px" x1="0" x2="0" y1="0" y2="6"/>
<text dy=".35em" fill="#777" font-family="sans-serif" font-size="12px" text-anchor="middle" transform="rotate(0,0,16)" x="0" y="16">
99.07
</text>
</g>
<g class="tick" transform="translate(1298.2688,0)">
<line shape-rendering="crispEdges" stroke="#bbbbbb" stroke-width="1px" x1="0" x2="0" y1="0" y2="6"/>
<text dy=".35em" fill="#777" font-family="sans-serif" font-size="12px" text-anchor="middle" transform="rotate(0,0,16)" x="0" y="16">
99.14
</text>
</g>
<g class="tick" transform="translate(1336.9653,0)">
<line shape-rendering="crispEdges" stroke="#bbbbbb" stroke-width="1px" x1="0" x2="0" y1="0" y2="6"/>
<text dy=".35em" fill="#777" font-family="sans-serif" font-size="12px" text-anchor="middle" transform="rotate(0,0,16)" x="0" y="16">
99.21
</text>
</g>
<g class="tick" transform="translate(1375.6619,0)">
<line shape-rendering="crispEdges" stroke="#bbbbbb" stroke-width="1px" x1="0" x2="0" y1="0" y2="6"/>
<text dy=".35em" fill="#777" font-family="sans-serif" font-size="12px" text-anchor="middle" transform="rotate(0,0,16)" x="0" y="16">
99.36
</text>
</g>
<g class="tick" transform="translate(1414.3584,0)">
<line shape-rendering="crispEdges" stroke="#bbbbbb" stroke-width="1px" x1="0" x2="0" y1="0" y2="6"/>
<text dy=".35em" fill="#777" font-family="sans-serif" font-size="12px" text-anchor="middle" transform="rotate(0,0,16)" x="0" y="16">
99.39
</text>
</g>
<g class="tick" transform="translate(1453.0549,0)">
<line shape-rendering="crispEdges" stroke="#bbbbbb" stroke-width="1px" x1="0" x2="0" y1="0" y2="6"/>
<text dy=".35em" fill="#777" font-family="sans-serif" font-size="12px" text-anchor="middle" transform="rotate(0,0,16)" x="0" y="16">
99.43
</text>
</g>
<g class="tick" transform="translate(1491.7515,0)">
<line shape-rendering="crispEdges" stroke="#bbbbbb" stroke-width="1px" x1="0" x2="0" y1="0" y2="6"/>
<text dy=".35em" fill="#777" font-family="sans-serif" font-size="12px" text-anchor="middle" transform="rotate(0,0,16)" x="0" y="16">
99.46
</text>
</g>
<g class="tick" transform="translate(1530.448,0)">
<line shape-rendering="crispEdges" stroke="#bbbbbb" stroke-width="1px" x1="0" x2="0" y1="0" y2="6"/>
<text dy=".35em" fill="#777" font-family="sans-serif" font-size="12px" text-anchor="middle" transform="rotate(0,0,16)" x="0" y="16">
99.50
</text>
</g>
<g class="tick" transform="translate(1569.1445,0)">
<line shape-rendering="crispEdges" stroke="#bbbbbb" stroke-width="1px" x1="0" x2="0" y1="0" y2="6"/>
<text dy=".35em" fill="#777" font-family="sans-serif" font-size="12px" text-anchor="middle" transform="rotate(0,0,16)" x="0" y="16">
99.54
</text>
</g>
<g class="tick" transform="translate(1607.8411,0)">
<line shape-rendering="crispEdges" stroke="#bbbbbb" stroke-width="1px" x1="0" x2="0" y1="0" y2="6"/>
<text dy=".35em" fill="#777" font-family="sans-serif" font-size="12px" text-anchor="middle" transform="rotate(0,0,16)" x="0" y="16">
99.57
</text>
</g>
<g class="tick" transform="translate(1646.5376,0)">
<line shape-rendering="crispEdges" stroke="#bbbbbb" stroke-width="1px" x1="0" x2="0" y1="0" y2="6"/>
<text dy=".35em" fill="#777" font-family="sans-serif" font-size="12px" text-anchor="middle" transform="rotate(0,0,16)" x="0" y="16">
99.61
</text>
</g>
<g class="tick" transform="translate(1685.2341,0)">
<line shape-rendering="crispEdges" stroke="#bbbbbb" stroke-width="1px" x1="0" x2="0" y1="0" y2="6"/>
<text dy=".35em" fill="#777" font-family="sans-serif" font-size="12px" text-anchor="middle" transform="rotate(0,0,16)" x="0" y="16">
99.71
</text>
</g>
<g class="tick" transform="translate(1723.9307,0)">
<line shape-rendering="crispEdges" stroke="#bbbbbb" stroke-width="1px" x1="0" x2="0" y1="0" y2="6"/>
<text dy=".35em" fill="#777" font-family="sans-serif" font-size="12px" text-anchor="middle" transform="rotate(0,0,16)" x="0" y="16">
99.79
</text>
</g>
<g class="tick" transform="translate(1762.6272,0)">
<line shape-rendering="crispEdges" stroke="#bbbbbb" stroke-width="1px" x1="0" x2="0" y1="0" y2="6"/>
<text dy=".35em" fill="#777" font-family="sans-serif" font-size="12px" text-anchor="middle" transform="rotate(0,0,16)" x="0" y="16">
99.82
</text>
</g>
<g class="tick" transform="translate(1801.3237,0)">
<line shape-rendering="crispEdges" stroke="#bbbbbb" stroke-width="1px" x1="0" x2="0" y1="0" y2="6"/>
<text dy=".35em" fill="#777" font-family="sans-serif" font-size="12px" text-anchor="middle" transform="rotate(0,0,16)" x="0" y="16">
99.93
</text>
</g>
<g class="tick" transform="translate(1840.0203,0)">
<line shape-rendering="crispEdges" stroke="#bbbbbb" stroke-width="1px" x1="0" x2="0" y1="0" y2="6"/>
<text dy=".35em" fill="#777" font-family="sans-serif" font-size="12px" text-anchor="middle" transform="rotate(0,0,16)" x="0" y="16">
99.96
</text>
</g>
<g class="tick" transform="translate(1878.7169,0)">
<line shape-rendering="crispEdges" stroke="#bbbbbb" stroke-width="1px" x1="0" x2="0" y1="0" y2="6"/>
<text dy=".35em" fill="#777" font-family="sans-serif" font-size="12px" text-anchor="middle" transform="rotate(0,0,16)" x="0" y="16">
100.00
</text>
</g>
<text fill="#777" font-family="sans-serif" font-size="14px" text-anchor="middle" transform="rotate(0)" x="950" y="42">
Percentile
</text>
</g>
<g class="y-axis" transform="translate(60,90)">
<line shape-rendering="crispEdges" stroke="#bbbbbb" stroke-width="1" x1="0" x2="0" y1="0" y2="460"/>
<g class="tick" transform="translate(0,460)">
<line shape-rendering="crispEdges" stroke="#bbbbbb" stroke-width="1px" x1="0" x2="-6" y1="0" y2="0"/>
<text dy=".35em" fill="#777" font-family="sans-serif" font-size="12px" text-anchor="end" transform="rotate(0,-12,0)" x="-12" y="0">
0
</text>
</g>
<g class="tick" transform="translate(0,402.5)">
<line shape-rendering="crispEdges" stroke="#bbbbbb" stroke-width="1px" x1="0" x2="-6" y1="0" y2="0"/>
<text dy=".35em" fill="#777" font-family="sans-serif" font-size="12px" text-anchor="end" transform="rotate(0,-12,0)" x="-12" y="0">
100
</text>
</g>
<g class="tick" transform="translate(0,345)">
<line shape-rendering="crispEdges" stroke="#bbbbbb" stroke-width="1px" x1="0" x2="-6" y1="0" y2="0"/>
<text dy=".35em" fill="#777" font-family="sans-serif" font-size="12px" text-anchor="end" transform="rotate(0,-12,0)" x="-12" y="0">
200
</text>
</g>
<g class="tick" transform="translate(0,287.5)">
<line shape-rendering="crispEdges" stroke="#bbbbbb" stroke-width="1px" x1="0" x2="-6" y1="0" y2="0"/>
<text dy=".35em" fill="#777" font-family="sans-serif" font-size="12px" text-anchor="end" transform="rotate(0,-12,0)" x="-12" y="0">
300
</text>
</g>
<g class="tick" transform="translate(0,230)">
<line shape-rendering="crispEdges" stroke="#bbbbbb" stroke-width="1px" x1="0" x2="-6" y1="0" y2="0"/>
<text dy=".35em" fill="#777" font-family="sans-serif" font-size="12px" text-anchor="end" transform="rotate(0,-12,0)" x="-12" y="0">
400
</text>
</g>
<g class="tick" transform="translate(0,172.5)">
<line shape-rendering="crispEdges" stroke="#bbbbbb" stroke-width="1px" x1="0" x2="-6" y1="0" y2="0"/>
<text dy=".35em" fill="#777" font-family="sans-serif" font-size="12px" text-anchor="end" transform="rotate(0,-12,0)" x="-12" y="0">
500
</text>
</g>
<g class="tick" transform="translate(0,115)">
<line shape-rendering="crispEdges" stroke="#bbbbbb" stroke-width="1px" x1="0" x2="-6" y1="0" y2="0"/>
<text dy=".35em" fill="#777" font-family="sans-serif" font-size="12px" text-anchor="end" transform="rotate(0,-12,0)" x="-12" y="0">
600
</text>
</g>
<g class="tick" transform="translate(0,57.5)">
<line shape-rendering="crispEdges" stroke="#bbbbbb" stroke-width="1px" x1="0" x2="-6" y1="0" y2="0"/>
<text dy=".35em" fill="#777" font-family="sans-serif" font-size="12px" text-anchor="end" transform="rotate(0,-12,0)" x="-12" y="0">
700
</text>
</g>
<g class="tick" transform="translate(0,0)">
<line shape-rendering="crispEdges" stroke="#bbbbbb" stroke-width="1px" x1="0" x2="-6" y1="0" y2="0"/>
<text dy=".35em" fill="#777" font-family="sans-serif" font-size="12px" text-anchor="end" transform="rotate(0,-12,0)" x="-12" y="0">
800
</text>
</g>
<text fill="#777" font-family="sans-serif" font-size="14px" text-anchor="middle" transform="rotate(-90)" x="-230" y="-42">
Microseconds
</text>
</g>
<g class="g-view" transform="translate(60,90)">
<g>
<g class="bar" transform="translate(1783.9103,0)">
<rect fill="#1f77b4" height="105.225006" shape-rendering="crispEdges" width="34.82688" x="0" y="354.775"/>
<text dy=".35em" fill="#333" font-family="sans-serif" font-size="14px" text-anchor="middle" x="17.41344" y="338.775">
183
</text>
</g>
<g class="bar" transform="translate(158.65578,0)">
<rect fill="#1f77b4" height="2.2999878" shape-rendering="crispEdges" width="34.82688" x="0" y="457.7"/>
<text dy=".35em" fill="#333" font-family="sans-serif" font-size="14px" text-anchor="middle" x="17.41344" y="441.7">
4
</text>
</g>
<g class="bar" transform="translate(545.62115,0)">
<rect fill="#1f77b4" height="8.049988" shape-rendering="crispEdges" width="34.82688" x="0" y="451.95"/>
<text dy=".35em" fill="#333" font-family="sans-serif" font-size="14px" text-anchor="middle" x="17.41344" y="435.95">
14
</text>
</g>
<g class="bar" transform="translate(1048.6761,0)">
<rect fill="#1f77b4" height="23.575012" shape-rendering="crispEdges" width="34.82688" x="0" y="436.425"/>
<text dy=".35em" fill="#333" font-family="sans-serif" font-size="14px" text-anchor="middle" x="17.41344" y="420.425">
41
</text>
</g>
<g class="bar" transform="translate(1706.5172,0)">
<rect fill="#1f77b4" height="91.42499" shape-rendering="crispEdges" width="34.82688" x="0" y="368.575"/>
<text dy=".35em" fill="#333" font-family="sans-serif" font-size="14px" text-anchor="middle" x="17.41344" y="352.575">
159
</text>
</g>
<g class="bar" transform="translate(3.869629,0)">
<rect fill="#1f77b4" height="0" shape-rendering="crispEdges" width="34.82688" x="0" y="460"/>
<text dy=".35em" fill="#333" font-family="sans-serif" font-size="14px" text-anchor="middle" x="17.41344" y="444">
0
</text>
</g>
<g class="bar" transform="translate(81.2627,0)">
<rect fill="#1f77b4" height="1.1499939" shape-rendering="crispEdges" width="34.82688" x="0" y="458.85"/>
<text dy=".35em" fill="#333" font-family="sans-serif" font-size="14px" text-anchor="middle" x="17.41344" y="442.85">
2
</text>
</g>
<g class="bar" transform="translate(1009.9796,0)">
<rect fill="#1f77b4" height="21.274994" shape-rendering="crispEdges" width="34.82688" x="0" y="438.725"/>
<text dy=".35em" fill="#333" font-family="sans-serif" font-size="14px" text-anchor="middle" x="17.41344" y="422.725">
37
</text>
</g>
<g class="bar" transform="translate(1126.0692,0)">
<rect fill="#1f77b4" height="25.875" shape-rendering="crispEdges" width="34.82688" x="0" y="434.125"/>
<text dy=".35em" fill="#333" font-family="sans-serif" font-size="14px" text-anchor="middle" x="17.41344" y="418.125">
45
</text>
</g>
<g class="bar" transform="translate(42.566166,0)">
<rect fill="#1f77b4" height="0.5750122" shape-rendering="crispEdges" width="34.82688" x="0" y="459.425"/>
<text dy=".35em" fill="#333" font-family="sans-serif" font-size="14px" text-anchor="middle" x="17.41344" y="443.425">
1
</text>
</g>
<g class="bar" transform="translate(1164.7657,0)">
<rect fill="#1f77b4" height="28.174988" shape-rendering="crispEdges" width="34.82688" x="0" y="431.825"/>
<text dy=".35em" fill="#333" font-family="sans-serif" font-size="14px" text-anchor="middle" x="17.41344" y="415.825">
49
</text>
</g>
<g class="bar" transform="translate(1242.1588,0)">
<rect fill="#1f77b4" height="30.475006" shape-rendering="crispEdges" width="34.82688" x="0" y="429.525"/>
<text dy=".35em" fill="#333" font-family="sans-serif" font-size="14px" text-anchor="middle" x="17.41344" y="413.525">
53
</text>
</g>
<g class="bar" transform="translate(1396.945,0)">
<rect fill="#1f77b4" height="35.075012" shape-rendering="crispEdges" width="34.82688" x="0" y="424.925"/>
<text dy=".35em" fill="#333" font-family="sans-serif" font-size="14px" text-anchor="middle" x="17.41344" y="408.925">
61
</text>
</g>
<g class="bar" transform="translate(1861.3035,0)">
<rect fill="#1f77b4" height="441.025" shape-rendering="crispEdges" width="34.82688" x="0" y="18.975006"/>
<text dy=".35em" fill="#333" font-family="sans-serif" font-size="14px" text-anchor="middle" x="17.41344" y="2.975006">
767
</text>
</g>
<g class="bar" transform="translate(1280.8553,0)">
<rect fill="#1f77b4" height="31.625" shape-rendering="crispEdges" width="34.82688" x="0" y="428.375"/>
<text dy=".35em" fill="#333" font-family="sans-serif" font-size="14px" text-anchor="middle" x="17.41344" y="412.375">
55
</text>
</g>
<g class="bar" transform="translate(1513.0345,0)">
<rect fill="#1f77b4" height="47.725006" shape-rendering="crispEdges" width="34.82688" x="0" y="412.275"/>
<text dy=".35em" fill="#333" font-family="sans-serif" font-size="14px" text-anchor="middle" x="17.41344" y="396.275">
83
</text>
</g>
<g class="bar" transform="translate(429.53152,0)">
<rect fill="#1f77b4" height="6.325012" shape-rendering="crispEdges" width="34.82688" x="0" y="453.675"/>
<text dy=".35em" fill="#333" font-family="sans-serif" font-size="14px" text-anchor="middle" x="17.41344" y="437.675">
11
</text>
</g>
<g class="bar" transform="translate(816.4969,0)">
<rect fill="#1f77b4" height="14.375" shape-rendering="crispEdges" width="34.82688" x="0" y="445.625"/>
<text dy=".35em" fill="#333" font-family="sans-serif" font-size="14px" text-anchor="middle" x="17.41344" y="429.625">
25
</text>
</g>
<g class="bar" transform="translate(1435.6415,0)">
<rect fill="#1f77b4" height="38.524994" shape-rendering="crispEdges" width="34.82688" x="0" y="421.475"/>
<text dy=".35em" fill="#333" font-family="sans-serif" font-size="14px" text-anchor="middle" x="17.41344" y="405.475">
67
</text>
</g>
<g class="bar" transform="translate(1087.3727,0)">
<rect fill="#1f77b4" height="24.725006" shape-rendering="crispEdges" width="34.82688" x="0" y="435.275"/>
<text dy=".35em" fill="#333" font-family="sans-serif" font-size="14px" text-anchor="middle" x="17.41344" y="419.275">
43
</text>
</g>
<g class="bar" transform="translate(1745.2137,0)">
<rect fill="#1f77b4" height="100.625" shape-rendering="crispEdges" width="34.82688" x="0" y="359.375"/>
<text dy=".35em" fill="#333" font-family="sans-serif" font-size="14px" text-anchor="middle" x="17.41344" y="343.375">
175
</text>
</g>
<g class="bar" transform="translate(584.3177,0)">
<rect fill="#1f77b4" height="8.625" shape-rendering="crispEdges" width="34.82688" x="0" y="451.375"/>
<text dy=".35em" fill="#333" font-family="sans-serif" font-size="14px" text-anchor="middle" x="17.41344" y="435.375">
15
</text>
</g>
<g class="bar" transform="translate(1822.6068,0)">
<rect fill="#1f77b4" height="174.22498" shape-rendering="crispEdges" width="34.82688" x="0" y="285.77502"/>
<text dy=".35em" fill="#333" font-family="sans-serif" font-size="14px" text-anchor="middle" x="17.41344" y="269.77502">
303
</text>
</g>
<g class="bar" transform="translate(1667.8207,0)">
<rect fill="#1f77b4" height="82.225006" shape-rendering="crispEdges" width="34.82688" x="0" y="377.775"/>
<text dy=".35em" fill="#333" font-family="sans-serif" font-size="14px" text-anchor="middle" x="17.41344" y="361.775">
143
</text>
</g>
<g class="bar" transform="translate(1319.5519,0)">
<rect fill="#1f77b4" height="32.774994" shape-rendering="crispEdges" width="34.82688" x="0" y="427.225"/>
<text dy=".35em" fill="#333" font-family="sans-serif" font-size="14px" text-anchor="middle" x="17.41344" y="411.225">
57
</text>
</g>
<g class="bar" transform="translate(777.80035,0)">
<rect fill="#1f77b4" height="12.075012" shape-rendering="crispEdges" width="34.82688" x="0" y="447.925"/>
<text dy=".35em" fill="#333" font-family="sans-serif" font-size="14px" text-anchor="middle" x="17.41344" y="431.925">
21
</text>
</g>
<g class="bar" transform="translate(197.35231,0)">
<rect fill="#1f77b4" height="2.875" shape-rendering="crispEdges" width="34.82688" x="0" y="457.125"/>
<text dy=".35em" fill="#333" font-family="sans-serif" font-size="14px" text-anchor="middle" x="17.41344" y="441.125">
5
</text>
</g>
<g class="bar" transform="translate(971.2831,0)">
<rect fill="#1f77b4" height="20.125" shape-rendering="crispEdges" width="34.82688" x="0" y="439.875"/>
<text dy=".35em" fill="#333" font-family="sans-serif" font-size="14px" text-anchor="middle" x="17.41344" y="423.875">
35
</text>
</g>
<g class="bar" transform="translate(313.44193,0)">
<rect fill="#1f77b4" height="4.600006" shape-rendering="crispEdges" width="34.82688" x="0" y="455.4"/>
<text dy=".35em" fill="#333" font-family="sans-serif" font-size="14px" text-anchor="middle" x="17.41344" y="439.4">
8
</text>
</g>
<g class="bar" transform="translate(893.88995,0)">
<rect fill="#1f77b4" height="17.825012" shape-rendering="crispEdges" width="34.82688" x="0" y="442.175"/>
<text dy=".35em" fill="#333" font-family="sans-serif" font-size="14px" text-anchor="middle" x="17.41344" y="426.175">
31
</text>
</g>
<g class="bar" transform="translate(661.71075,0)">
<rect fill="#1f77b4" height="9.774994" shape-rendering="crispEdges" width="34.82688" x="0" y="450.225"/>
<text dy=".35em" fill="#333" font-family="sans-serif" font-size="14px" text-anchor="middle" x="17.41344" y="434.225">
17
</text>
</g>
<g class="bar" transform="translate(1551.7311,0)">
<rect fill="#1f77b4" height="61.524994" shape-rendering="crispEdges" width="34.82688" x="0" y="398.475"/>
<text dy=".35em" fill="#333" font-family="sans-serif" font-size="14px" text-anchor="middle" x="17.41344" y="382.475">
107
</text>
</g>
<g class="bar" transform="translate(1590.4276,0)">
<rect fill="#1f77b4" height="68.42499" shape-rendering="crispEdges" width="34.82688" x="0" y="391.575"/>
<text dy=".35em" fill="#333" font-family="sans-serif" font-size="14px" text-anchor="middle" x="17.41344" y="375.575">
119
</text>
</g>
<g class="bar" transform="translate(1629.1241,0)">
<rect fill="#1f77b4" height="70.725006" shape-rendering="crispEdges" width="34.82688" x="0" y="389.275"/>
<text dy=".35em" fill="#333" font-family="sans-serif" font-size="14px" text-anchor="middle" x="17.41344" y="373.275">
123
</text>
</g>
<g class="bar" transform="translate(932.58655,0)">
<rect fill="#1f77b4" height="18.975006" shape-rendering="crispEdges" width="34.82688" x="0" y="441.025"/>
<text dy=".35em" fill="#333" font-family="sans-serif" font-size="14px" text-anchor="middle" x="17.41344" y="425.025">
33
</text>
</g>
<g class="bar" transform="translate(352.13846,0)">
<rect fill="#1f77b4" height="5.174988" shape-rendering="crispEdges" width="34.82688" x="0" y="454.825"/>
<text dy=".35em" fill="#333" font-family="sans-serif" font-size="14px" text-anchor="middle" x="17.41344" y="438.825">
9
</text>
</g>
<g class="bar" transform="translate(119.95924,0)">
<rect fill="#1f77b4" height="1.7250061" shape-rendering="crispEdges" width="34.82688" x="0" y="458.275"/>
<text dy=".35em" fill="#333" font-family="sans-serif" font-size="14px" text-anchor="middle" x="17.41344" y="442.275">
3
</text>
</g>
<g class="bar" transform="translate(623.0142,0)">
<rect fill="#1f77b4" height="9.200012" shape-rendering="crispEdges" width="34.82688" x="0" y="450.8"/>
<text dy=".35em" fill="#333" font-family="sans-serif" font-size="14px" text-anchor="middle" x="17.41344" y="434.8">
16
</text>
</g>
<g class="bar" transform="translate(1358.2484,0)">
<rect fill="#1f77b4" height="33.924988" shape-rendering="crispEdges" width="34.82688" x="0" y="426.075"/>
<text dy=".35em" fill="#333" font-family="sans-serif" font-size="14px" text-anchor="middle" x="17.41344" y="410.075">
59
</text>
</g>
<g class="bar" transform="translate(1203.4623,0)">
<rect fill="#1f77b4" height="29.325012" shape-rendering="crispEdges" width="34.82688" x="0" y="430.675"/>
<text dy=".35em" fill="#333" font-family="sans-serif" font-size="14px" text-anchor="middle" x="17.41344" y="414.675">
51
</text>
</g>
<g class="bar" transform="translate(468.2281,0)">
<rect fill="#1f77b4" height="6.899994" shape-rendering="crispEdges" width="34.82688" x="0" y="453.1"/>
<text dy=".35em" fill="#333" font-family="sans-serif" font-size="14px" text-anchor="middle" x="17.41344" y="437.1">
12
</text>
</g>
<g class="bar" transform="translate(274.7454,0)">
<rect fill="#1f77b4" height="4.024994" shape-rendering="crispEdges" width="34.82688" x="0" y="455.975"/>
<text dy=".35em" fill="#333" font-family="sans-serif" font-size="14px" text-anchor="middle" x="17.41344" y="439.975">
7
</text>
</g>
<g class="bar" transform="translate(700.4073,0)">
<rect fill="#1f77b4" height="10.924988" shape-rendering="crispEdges" width="34.82688" x="0" y="449.075"/>
<text dy=".35em" fill="#333" font-family="sans-serif" font-size="14px" text-anchor="middle" x="17.41344" y="433.075">
19
</text>
</g>
<g class="bar" transform="translate(1474.338,0)">
<rect fill="#1f77b4" height="43.125" shape-rendering="crispEdges" width="34.82688" x="0" y="416.875"/>
<text dy=".35em" fill="#333" font-family="sans-serif" font-size="14px" text-anchor="middle" x="17.41344" y="400.875">
75
</text>
</g>
<g class="bar" transform="translate(236.04886,0)">
<rect fill="#1f77b4" height="3.4500122" shape-rendering="crispEdges" width="34.82688" x="0" y="456.55"/>
<text dy=".35em" fill="#333" font-family="sans-serif" font-size="14px" text-anchor="middle" x="17.41344" y="440.55">
6
</text>
</g>
<g class="bar" transform="translate(390.835,0)">
<rect fill="#1f77b4" height="5.75" shape-rendering="crispEdges" width="34.82688" x="0" y="454.25"/>
<text dy=".35em" fill="#333" font-family="sans-serif" font-size="14px" text-anchor="middle" x="17.41344" y="438.25">
10
</text>
</g>
<g class="bar" transform="translate(506.92462,0)">
<rect fill="#1f77b4" height="7.475006" shape-rendering="crispEdges" width="34.82688" x="0" y="452.525"/>
<text dy=".35em" fill="#333" font-family="sans-serif" font-size="14px" text-anchor="middle" x="17.41344" y="436.525">
13
</text>
</g>
<g class="bar" transform="translate(855.1934,0)">
<rect fill="#1f77b4" height="14.950012" shape-rendering="crispEdges" width="34.82688" x="0" y="445.05"/>
<text dy=".35em" fill="#333" font-family="sans-serif" font-size="14px" text-anchor="middle" x="17.41344" y="429.05">
26
</text>
</g>
<g class="bar" transform="translate(739.1038,0)">
<rect fill="#1f77b4" height="11.5" shape-rendering="crispEdges" width="34.82688" x="0" y="448.5"/>
<text dy=".35em" fill="#333" font-family="sans-serif" font-size="14px" text-anchor="middle" x="17.41344" y="432.5">
20
</text>
</g>
</g>
</g>
</g>
</svg>